<?xml version="1.0" encoding="utf-8"?><!-- Uploaded to: SVG Repo, www.svgrepo.com, Generator: SVG Repo Mixer Tools -->
<svg version="1.1" id="designs" xmlns="http://www.w3.org/2000/svg" xmlns:xlink="http://www.w3.org/1999/xlink" 
	 width="800px" height="800px" viewBox="0 0 32 32" xml:space="preserve">
<style type="text/css">
	.scienceandfiction_een{fill:#2B4099;}
	.scienceandfiction_twee{fill:#CC2954;}
</style>
<path class="scienceandfiction_twee" d="M23,22h7v1h-7V22z M23,25h7v-1h-7V25z M23,27h7v-1h-7V27z M23,29h7v-1h-7V29z M3,14h1v-1H3
	V14z M3,16h1v-1H3V16z M3,18h1v-1H3V18z M3,20h1v-1H3V20z M5,14h1v-1H5V14z M5,16h1v-1H5V16z M5,18h1v-1H5V18z M5,20h1v-1H5V20z
	 M7,14h1v-1H7V14z M7,16h1v-1H7V16z M7,18h1v-1H7V18z M7,20h1v-1H7V20z M25,4h-1v1h1V4z M25,6h-1v1h1V6z M25,8h-1v1h1V8z M24,10v1h1
	v-1H24z M27,5V4h-1v1H27z M26,7h1V6h-1V7z M26,9h1V8h-1V9z M26,10v1h1v-1H26z M28,4v1h1V4H28z M28,7h1V6h-1V7z M28,9h1V8h-1V9z
	 M28,11h1v-1h-1V11z M23,5v1h1V5H23z M23,7v1h1V7H23z M23,9v1h1V9H23z M23,12h1v-1h-1V12z M26,5h-1v1h1V5z M26,7h-1v1h1V7z M25,9v1
	h1V9H25z M25,12h1v-1h-1V12z M27,6h1V5h-1V6z M23,3v1h1V3H23z M26,3h-1v1h1V3z M28,3h-1v1h1V3z M27,8h1V7h-1V8z M27,10h1V9h-1V10z
	 M27,12h1v-1h-1V12z M30,6V5h-1v1H30z M30,3h-1v1h1V3z M30,8V7h-1v1H30z M30,10V9h-1v1H30z M30,12v-1h-1v1H30z"/>
<path class="scienceandfiction_een" d="M31,13V2h-9v5h-6v7l-2,2h-4v-5H1v11h9v-5h4l2,2v7h6v5h9V20h-9v5h-5v-6l2.5-2.5L17,14V8h5v5
	H31z M23,3h7v9h-7V3z M9,21H2v-9h7V21z M23,21h7v9h-7V21z M18.086,16.5L16.5,18.086L14.914,16.5l1.586-1.586L18.086,16.5z"/>
</svg>