<svg version="1.1" id="designs" xmlns="http://www.w3.org/2000/svg" width="800" height="800" viewBox="0 0 32 32" xml:space="preserve"><path d="M23 22h7v1h-7v-1zm0 3h7v-1h-7v1zm0 2h7v-1h-7v1zm0 2h7v-1h-7v1zM3 14h1v-1H3v1zm0 2h1v-1H3v1zm0 2h1v-1H3v1zm0 2h1v-1H3v1zm2-6h1v-1H5v1zm0 2h1v-1H5v1zm0 2h1v-1H5v1zm0 2h1v-1H5v1zm2-6h1v-1H7v1zm0 2h1v-1H7v1zm0 2h1v-1H7v1zm0 2h1v-1H7v1zM25 4h-1v1h1V4zm0 2h-1v1h1V6zm0 2h-1v1h1V8zm-1 2v1h1v-1h-1zm3-5V4h-1v1h1zm-1 2h1V6h-1v1zm0 2h1V8h-1v1zm0 1v1h1v-1h-1zm2-6v1h1V4h-1zm0 3h1V6h-1v1zm0 2h1V8h-1v1zm0 2h1v-1h-1v1zm-5-6v1h1V5h-1zm0 2v1h1V7h-1zm0 2v1h1V9h-1zm0 3h1v-1h-1v1zm3-7h-1v1h1V5zm0 2h-1v1h1V7zm-1 2v1h1V9h-1zm0 3h1v-1h-1v1zm2-6h1V5h-1v1zm-4-3v1h1V3h-1zm3 0h-1v1h1V3zm2 0h-1v1h1V3zm-1 5h1V7h-1v1zm0 2h1V9h-1v1zm0 2h1v-1h-1v1zm3-6V5h-1v1h1zm0-3h-1v1h1V3zm0 5V7h-1v1h1zm0 2V9h-1v1h1zm0 2v-1h-1v1h1z" style="fill:#cc2954"/><path d="M31 13V2h-9v5h-6v7l-2 2h-4v-5H1v11h9v-5h4l2 2v7h6v5h9V20h-9v5h-5v-6l2.5-2.5L17 14V8h5v5h9zM23 3h7v9h-7V3zM9 21H2v-9h7v9zm14 0h7v9h-7v-9zm-4.914-4.5L16.5 18.086 14.914 16.5l1.586-1.586 1.586 1.586z" style="fill:#2b4099"/></svg>