<svg width="800" height="800" viewBox="0 0 100 100" xml:space="preserve" xmlns="http://www.w3.org/2000/svg"><style>.st0{fill:#fff}.st1{fill:#f5bb41}.st2{fill:#2167d1}.st3{fill:#3d84f3}.st4{fill:#4ca853}.st5{fill:#398039}.st6{fill:#d74f3f}.st7{fill:#d43c89}.st8{fill:#b2005f}.st9{fill:none;stroke:#000;stroke-width:3px;stroke-linecap:round;stroke-linejoin:round;stroke-miterlimit:10}.st10{fill-rule:evenodd;clip-rule:evenodd;fill:none;stroke:#000;stroke-width:3px;stroke-linecap:round;stroke-linejoin:round;stroke-miterlimit:10}.st11{fill-rule:evenodd;clip-rule:evenodd;fill:none;stroke:#040404;stroke-width:3px;stroke-linecap:round;stroke-linejoin:round;stroke-miterlimit:10}.st12{fill-rule:evenodd;clip-rule:evenodd}.st13{fill-rule:evenodd;clip-rule:evenodd;fill:#040404}.st14{fill:url(#SVGID_1_)}.st15{fill:url(#SVGID_2_)}.st16{fill:url(#SVGID_3_)}.st17{fill:url(#SVGID_4_)}.st18{fill:url(#SVGID_5_)}.st19{fill:url(#SVGID_6_)}.st20{fill:url(#SVGID_7_)}.st21{fill:url(#SVGID_8_)}.st22{fill:url(#SVGID_9_)}.st23{fill:url(#SVGID_10_)}.st24{fill:url(#SVGID_11_)}.st25{fill:url(#SVGID_12_)}.st26{fill:url(#SVGID_13_)}.st27{fill:url(#SVGID_14_)}.st28{fill:url(#SVGID_15_)}.st29{fill:url(#SVGID_16_)}.st30{fill:url(#SVGID_17_)}.st31{fill:url(#SVGID_18_)}.st32{fill:url(#SVGID_19_)}.st33{fill:url(#SVGID_20_)}.st34{fill:url(#SVGID_21_)}.st35{fill:url(#SVGID_22_)}.st36{fill:url(#SVGID_23_)}.st37{fill:url(#SVGID_24_)}.st38{fill:url(#SVGID_25_)}.st39{fill:url(#SVGID_26_)}.st40{fill:url(#SVGID_27_)}.st41{fill:url(#SVGID_28_)}.st42{fill:url(#SVGID_29_)}.st43{fill:url(#SVGID_30_)}.st44{fill:url(#SVGID_31_)}.st45{fill:url(#SVGID_32_)}.st46{fill:url(#SVGID_33_)}.st47{fill:url(#SVGID_34_)}.st48{fill:url(#SVGID_35_)}.st49{fill:url(#SVGID_36_)}.st50{fill:url(#SVGID_37_)}.st51{fill:url(#SVGID_38_)}.st52{fill:url(#SVGID_39_)}.st53{fill:url(#SVGID_40_)}.st54{fill:url(#SVGID_41_)}.st55{fill:url(#SVGID_42_)}.st56{fill:url(#SVGID_43_)}.st57{fill:url(#SVGID_44_)}.st58{fill:url(#SVGID_45_)}.st59{fill:#040404}.st60{fill:url(#SVGID_46_)}.st61{fill:url(#SVGID_47_)}.st62{fill:url(#SVGID_48_)}.st63{fill:url(#SVGID_49_)}.st64{fill:url(#SVGID_50_)}.st65{fill:url(#SVGID_51_)}.st66{fill:url(#SVGID_52_)}.st67{fill:url(#SVGID_53_)}.st68{fill:url(#SVGID_54_)}.st69{fill:url(#SVGID_55_)}.st70{fill:url(#SVGID_56_)}.st71{fill:url(#SVGID_57_)}.st72{fill:url(#SVGID_58_)}.st73{fill:url(#SVGID_59_)}.st74{fill:url(#SVGID_60_)}.st75{fill:url(#SVGID_61_)}.st76{fill:url(#SVGID_62_)}.st77{fill:none;stroke:#000;stroke-width:3px;stroke-miterlimit:10}.st78{fill:none;stroke:#fff;stroke-miterlimit:10}.st79{fill:#4bc9ff}.st80{fill:#50d}.st81{fill:#ff3a00}.st82{fill:#e6162d}.st83{fill:#f1f1f1}.st84{fill:#f93}.st85{fill:#b92b27}.st86{fill:#00aced}.st87{fill:#bd2125}.st88{fill:#1877f2}.st89{fill:#6665d2}.st90{fill:#ce3056}.st91{fill:#5bb381}.st92{fill:#61c3ec}.st93{fill:#e4b34b}.st94{fill:#181ef2}.st95{fill:red}.st96{fill:#fe466c}.st97{fill:#fa4778}.st98{fill:#f70}.st99{fill-rule:evenodd;clip-rule:evenodd;fill:#1f6bf6}.st100{fill:#520094}.st101{fill:#4477e8}.st102{fill:#3d1d1c}.st103{fill:#ffe812}.st104{fill:#344356}.st105{fill:#00cc76}.st106{fill-rule:evenodd;clip-rule:evenodd;fill:#345e90}.st107{fill:#1f65d8}.st108{fill:#eb3587}.st109{fill-rule:evenodd;clip-rule:evenodd;fill:#603a88}.st110{fill:#e3ce99}.st111{fill:#783af9}.st112{fill:#ff515e}.st113{fill:#ff4906}.st114{fill:#503227}.st115{fill:#4c7bd9}.st116{fill:#69c9d0}.st117{fill:#1b92d1}.st118{fill:#eb4f4a}.st119{fill:#513728}.st120{fill:#f60}.st121{fill-rule:evenodd;clip-rule:evenodd;fill:#b61438}.st122{fill:#fffc00}.st123{fill:#141414}.st124{fill:#94d137}.st125{fill-rule:evenodd;clip-rule:evenodd;fill:#f1f1f1}.st127{fill:#2d8cff}.st128{fill:#f1a300}.st129{fill:#4ba2f2}.st130{fill:#1a5099}.st131{fill:#ee6060}.st132{fill-rule:evenodd;clip-rule:evenodd;fill:#f48120}.st133{fill:#222}.st134{fill:url(#SVGID_63_)}.st135{fill:#0077b5}.st136{fill:#fc0}.st137{fill:#eb3352}.st138{fill:#f9d265}.st139{fill:#f5b955}.st140{fill:#dd2a7b}.st141{fill:#66e066}.st142{fill:#eb4e00}.st143{fill:#ffc794}.st144{fill:#b5332a}.st145{fill:#4e85eb}.st146{fill:#58a45c}.st147{fill:#f2bc42}.st148{fill:#d85040}.st149{fill:#464eb8}.st150{fill:#7b83eb}</style><g id="Layer_2"><path class="st125" d="M82.773 17.048c-38.434-37.321-98.728 8.848-72.606 55.645L3.622 96.589l24.455-6.412c46.787 24.737 91.578-35.212 54.696-73.129z"/><path d="M50.143 88.745c-7.593.027-14.974-2.253-21.34-6.295l-14.796 3.879 3.95-14.421c-4.438-6.577-6.941-14.291-6.907-22.275-.07-34.549 42.425-52.164 66.746-27.615 24.516 24.34 6.906 66.803-27.653 66.727z" style="fill-rule:evenodd;clip-rule:evenodd;fill:#66e066"/><path class="st125" d="M71.585 59.476c-1.175-.588-6.953-3.431-8.03-3.823-1.077-.392-1.861-.588-2.644.589-.784 1.176-3.034 3.822-3.72 4.605-.685.785-1.371.883-2.546.295-2.539.339-15.564-10.676-15.988-13.97-.685-1.175-.073-1.812.516-2.398 1.023-1.123 2.318-2.535 2.937-4.018.392-.785.196-1.471-.098-2.059-.294-.588-2.578-6.4-3.623-8.723-.88-1.957-1.807-1.996-2.644-2.031-1.983.031-3.518-.484-5.386 1.443-7.004 6.741-3.792 16.214.685 21.955.587.784 8.13 13.028 20.075 17.738 9.927 3.915 11.947 3.136 14.102 2.94 2.155-.196 6.953-2.842 7.932-5.586.979-2.744.979-5.096.686-5.587-.295-.488-1.079-.782-2.254-1.37z"/></g></svg>